<svg aria-hidden="true" style="position: absolute; width: 0; height: 0; overflow: hidden;" version="1.1" xmlns="http://www.w3.org/2000/svg" xmlns:xlink="http://www.w3.org/1999/xlink">
<defs>
<symbol id="icon-search" viewBox="0 0 33 32">
<path d="M5.269 30.508l6.447-7.58c0.705-0.784 1.029-1.622 0.998-2.299 2.096 1.789 4.815 2.87 7.787 2.87 6.627 0 12-5.373 12-12s-5.373-12-12-12-12 5.373-12 12c0 2.972 1.081 5.691 2.87 7.787-0.677-0.031-1.515 0.293-2.299 0.998l-7.58 6.447c-1.226 1.104-1.33 2.907-0.23 4.007s2.903 0.997 4.007-0.23zM12.5 11.5c0-4.418 3.582-8 8-8s8 3.582 8 8-3.582 8-8 8-8-3.582-8-8z"></path>
</symbol>
</defs>
</svg>
